<?xml version="1.0" standalone="no"?>
<!DOCTYPE svg PUBLIC "-//W3C//DTD SVG 20010904//EN"
 "http://www.w3.org/TR/2001/REC-SVG-20010904/DTD/svg10.dtd">
<svg version="1.0" xmlns="http://www.w3.org/2000/svg"
 width="512.000000pt" height="512.000000pt" viewBox="0 0 512.000000 512.000000"
 preserveAspectRatio="xMidYMid meet">
<metadata>
Created by potrace 1.14, written by Peter Selinger 2001-2017
</metadata>
<g transform="translate(0.000000,512.000000) scale(0.100000,-0.100000)"
fill="#000000" stroke="none">
<path d="M1682 4839 c-217 -37 -419 -198 -502 -403 l-22 -56 -77 0 c-257 -1
-512 -164 -612 -392 -17 -38 -32 -53 -77 -79 -182 -102 -302 -250 -364 -449
l-23 -75 0 -1175 0 -1175 23 -75 c69 -222 228 -397 434 -479 158 -64 114 -62
1529 -58 1134 2 1290 4 1334 18 150 48 264 117 361 222 36 40 71 82 77 94 8
17 16 21 38 16 37 -7 156 30 244 75 89 47 218 172 273 267 47 81 89 198 98
277 6 52 8 55 43 67 51 18 158 83 209 127 93 79 180 231 207 359 12 59 15 241
15 1192 0 1263 4 1195 -76 1353 -80 158 -207 268 -384 332 l-65 23 -1315 1
c-732 1 -1338 -2 -1368 -7z m2618 -229 c125 -20 226 -88 284 -193 68 -121 66
-73 66 -1292 0 -1194 2 -1149 -56 -1255 -26 -49 -113 -138 -155 -161 -19 -9
-19 12 -19 1036 0 1120 0 1124 -50 1240 -69 161 -224 300 -401 359 -146 49
-146 49 -1391 44 l-1167 -5 17 30 c52 90 182 178 292 196 80 13 2499 13 2580
1z m-522 -470 c183 -24 334 -139 389 -296 16 -45 18 -142 21 -1194 2 -764 -1
-1172 -8 -1225 -14 -111 -53 -187 -137 -273 -37 -38 -90 -81 -118 -95 l-50
-25 0 1177 0 1176 -23 75 c-86 273 -294 465 -564 520 -89 19 -148 20 -1318 20
l-1225 1 40 34 c22 19 63 46 90 59 113 57 47 55 1495 55 785 0 1365 -4 1408
-9z m-489 -471 c114 -26 211 -102 254 -197 17 -38 21 -73 25 -189 l5 -143
-1633 0 -1632 0 4 158 c3 143 6 162 29 212 46 98 122 155 227 168 91 11 2670
3 2721 -9z m351 -1662 c0 -767 -2 -911 -15 -960 -45 -171 -165 -301 -334 -359
l-66 -23 -1285 0 c-1169 0 -1289 1 -1335 17 -182 60 -283 154 -348 326 -22 57
-22 60 -25 980 l-3 922 1706 0 1705 0 0 -903z"/>
</g>
</svg>
